#!OML:ASF H:\Dans Jumps\Project 1\Capture day 1\Session 1\subject.ASF
:FULLY-SPECIFIED
:DEGREES
321
root 0.632784 15.0765 -13.0938 27.5549 -0.791619 -3.03743
lowerback 20.9887 1.39837 -1.72684
upperback -0.0806652 1.78736 3.0025
thorax -12.079 1.04941 3.79746
lowerneck -24.7034 0.252316 -0.885051
upperneck 11.3613 0.855701 -1.27273
head 7.47409 0.233764 -0.172786
rclavicle 5.1684e-015 6.75868e-015
rhumerus -20.4942 -15.9102 -74.4042
rradius 29.0224
rwrist 29.003
rhand -22.4421 -24.5316
rfingers 7.12502
rthumb 3.98182 -54.4741
lclavicle 5.1684e-015 6.75868e-015
lhumerus -17.881 4.94177 81.9062
lradius 21.6615
lwrist 15.3268
lhand -31.0472 -9.43131
lfingers 7.12502
lthumb -4.32874 20.5044
rfemur -57.8194 1.07709 22.1463
rtibia 70.9683
rfoot -35.4698 -19.6564
rtoes -6.83174
lfemur -59.5448 7.10371 -20.7412
ltibia 72.2862
lfoot -30.9 22.11
ltoes -19.2046
322
root 0.631644 15.204 -12.9186 26.7254 -0.524872 -3.02277
lowerback 20.5592 1.29677 -1.6891
upperback -0.133119 1.67741 3.09475
thorax -11.8884 0.99861 3.91395
lowerneck -24.4008 0.236914 -0.925936
upperneck 12.0989 0.834323 -1.15372
head 7.67342 0.228814 -0.129103
rclavicle -8.74653e-015 -7.15625e-015
rhumerus -18.9485 -14.3509 -75.1861
rradius 30.2589
rwrist 28.0887
rhand -22.4424 -24.5013
rfingers 7.12502
rthumb 3.98161 -54.4439
lclavicle -8.74653e-015 -7.15625e-015
lhumerus -16.5155 3.2878 82.4725
lradius 23.0719
lwrist 16.1714
lhand -31.0778 -9.42733
lfingers 7.12502
lthumb -4.35831 20.5078
rfemur -55.1108 0.940245 22.2189
rtibia 69.0874
rfoot -35.1139 -19.8737
rtoes -7.85357
lfemur -57.0251 7.13399 -20.5295
ltibia 70.6425
lfoot -30.4556 21.9212
ltoes -19.9951
323
root 0.629964 15.3388 -12.7345 25.838 -0.256852 -2.96457
lowerback 20.0737 1.19968 -1.68468
upperback -0.168869 1.56198 3.1676
thorax -11.646 0.945072 4.02747
lowerneck -24.0249 0.198862 -0.980525
upperneck 12.8667 0.784776 -1.03509
head 7.87135 0.209933 -0.0869752
rclavicle -1.59028e-015 3.97569e-016
rhumerus -17.5957 -12.8529 -75.8525
rradius 31.4685
rwrist 27.1816
rhand -22.484 -24.4755
rfingers 7.12502
rthumb 3.94142 -54.4188
lclavicle -1.59028e-015 3.97569e-016
lhumerus -15.1995 1.7668 82.9344
lradius 24.3283
lwrist 16.7334
lhand -30.9675 -9.21039
lfingers 7.12502
lthumb -4.25173 20.7269
rfemur -52.2519 0.774945 22.2494
rtibia 67.0762
rfoot -34.6299 -20.0624
rtoes -8.91301
lfemur -54.3765 7.15682 -20.3528
ltibia 68.8948
lfoot -29.8765 21.6564
ltoes -20.8424
324
root 0.627852 15.4801 -12.5412 24.9071 0.00793357 -2.86418
lowerback 19.5013 1.10879 -1.70817
upperback -0.182076 1.44427 3.21432
thorax -11.3277 0.889053 4.12586
lowerneck -23.5752 0.1337 -1.0537
upperneck 13.6611 0.700648 -0.909242
head 8.06631 0.174624 -0.0439578
rclavicle -1.47101e-014 -9.93923e-015
rhumerus -16.3868 -11.4971 -76.4244
rradius 32.5483
rwrist 26.3427
rhand -22.595 -24.4625
rfingers 7.12502
rthumb 3.83423 -54.4078
lclavicle -1.47101e-014 -9.93923e-015
lhumerus -13.8987 0.362052 83.3165
lradius 25.4148
lwrist 17.2877
lhand -30.7627 -8.8628
lfingers 7.12502
lthumb -4.05402 21.0784
rfemur -49.2747 0.575283 22.2381
rtibia 64.9603
rfoot -33.9973 -20.1888
rtoes -10.0207
lfemur -51.628 7.19124 -20.2133
ltibia 67.066
lfoot -29.1652 21.2623
ltoes -21.722
325
root 0.625585 15.6277 -12.3386 23.9531 0.264054 -2.72601
lowerback 18.8027 1.02357 -1.75378
upperback -0.168464 1.32515 3.23009
thorax -10.9064 0.82975 4.19962
lowerneck -23.035 0.0455384 -1.14057
upperneck 14.4597 0.584673 -0.776332
head 8.24772 0.124626 -0.000502977
rclavicle 3.37934e-015 -3.97569e-016
rhumerus -15.2727 -10.3031 -76.9304
rradius 33.4192
rwrist 25.6401
rhand -22.7724 -24.4794
rfingers 7.12502
rthumb 3.66285 -54.4276
lclavicle 3.37934e-015 -3.97569e-016
lhumerus -12.5902 -0.940204 83.6347
lradius 26.3051
lwrist 18.0064
lhand -30.5451 -8.5688
lfingers 7.12502
lthumb -3.84384 21.3763
rfemur -46.2268 0.334896 22.186
rtibia 62.7787
rfoot -33.1996 -20.1953
rtoes -11.1453
lfemur -48.8174 7.25928 -20.1107
ltibia 65.1785
lfoot -28.305 20.7051
ltoes -22.6469
326
root 0.622983 15.7808 -12.1271 22.9984 0.509389 -2.56196
lowerback 17.9492 0.94082 -1.81477
upperback -0.124869 1.20286 3.21407
thorax -10.3627 0.765384 4.24411
lowerneck -22.3949 -0.0593197 -1.22777
upperneck 15.2443 0.441463 -0.643093
head 8.40747 0.0622692 0.0396475
rclavicle -4.37326e-015 -1.98785e-014
rhumerus -14.2015 -9.27809 -77.4005
rradius 34.0129
rwrist 25.1647
rhand -22.9873 -24.478
rfingers 7.12502
rthumb 3.45533 -54.4297
lclavicle -4.37326e-015 -1.98785e-014
lhumerus -11.2705 -2.1636 83.8936
lradius 27.0061
lwrist 18.9672
lhand -30.3706 -8.43651
lfingers 7.12502
lthumb -3.67534 21.5115
rfemur -43.2293 0.0535112 22.1034
rtibia 60.7606
rfoot -32.3307 -20.0529
rtoes -12.2894
lfemur -46.0436 7.37683 -20.0269
ltibia 63.4258
lfoot -27.4065 19.9742
ltoes -23.5789
327
root 0.620632 15.94 -11.9066 22.0483 0.735084 -2.38385
lowerback 16.9351 0.858301 -1.88179
upperback -0.0450176 1.07749 3.1651
thorax -9.68757 0.695144 4.25262
lowerneck -21.6501 -0.168602 -1.30318
upperneck 15.9947 0.284526 -0.515189
head 8.53717 -0.00585627 0.0745558
rclavicle -2.98177e-015 -4.09496e-014
rhumerus -13.1402 -8.40764 -77.8599
rradius 34.3093
rwrist 24.9754
rhand -23.1632 -24.4443
rfingers 7.12502
rthumb 3.28553 -54.3987
lclavicle -2.98177e-015 -4.09496e-014
lhumerus -9.94353 -3.32834 84.0918
lradius 27.528
lwrist 20.1216
lhand -30.2883 -8.48382
lfingers 7.12502
lthumb -3.59586 21.4656
rfemur -40.2684 -0.279027 21.9969
rtibia 58.7863
rfoot -31.2227 -19.6987
rtoes -13.5195
lfemur -43.2723 7.5551 -19.9461
ltibia 61.6545
lfoot -26.3432 18.9957
ltoes -24.514
328
root 0.617838 16.0265 -11.6954 21.1193 0.943392 -2.2056
lowerback 15.7552 0.771581 -1.94037
upperback 0.0760413 0.947713 3.088
thorax -8.87406 0.617785 4.22283
lowerneck -20.8126 -0.270795 -1.34747
upperneck 16.6959 0.128336 -0.412965
head 8.63312 -0.0739217 0.0962241
rclavicle -1.78906e-015 -1.19271e-015
rhumerus -12.0686 -7.67569 -78.328
rradius 34.3397
rwrist 25.0612
rhand -23.2434 -24.3508
rfingers 7.12502
rthumb 3.20802 -54.3064
lclavicle -1.78906e-015 -1.19271e-015
lhumerus -8.62169 -4.44987 84.2265
lradius 27.9031
lwrist 21.3376
lhand -30.2883 -8.69901
lfingers 7.12502
lthumb -3.59591 21.2504
rfemur -37.7158 -0.669905 21.8776
rtibia 57.2258
rfoot -29.8331 -19.0998
rtoes -14.8532
lfemur -40.8722 7.787 -19.8476
ltibia 60.2036
lfoot -25.0926 17.7448
ltoes -25.4323
329
root 0.617295 16.2069 -11.4598 20.2037 1.11815 -2.0461
lowerback 14.4517 0.684861 -1.98046
upperback 0.240202 0.822069 2.98968
thorax -7.94685 0.537973 4.15553
lowerneck -19.9025 -0.359873 -1.36218
upperneck 17.347 -0.0158844 -0.340909
head 8.69779 -0.137255 0.104926
rclavicle -3.97569e-016 1.19271e-015
rhumerus -11.0007 -7.04618 -78.8118
rradius 34.1747
rwrist 25.346
rhand -23.2011 -24.1955
rfingers 7.12502
rthumb 3.24892 -54.1505
lclavicle -3.97569e-016 1.19271e-015
lhumerus -7.32344 -5.52837 84.2987
lradius 28.1672
lwrist 22.4605
lhand -30.3062 -8.95
lfingers 7.12502
lthumb -3.61317 20.9991
rfemur -34.9516 -1.1139 21.7538
rtibia 55.4566
rfoot -28.0801 -18.2581
rtoes -16.3309
lfemur -38.1451 8.07407 -19.7036
ltibia 58.3869
lfoot -23.6458 16.2061
ltoes -26.3213
330
root 0.618614 16.3963 -11.2185 19.2898 1.25058 -1.91754
lowerback 13.0773 0.602999 -1.98741
upperback 0.449212 0.70959 2.8777
thorax -6.93656 0.460949 4.05021
lowerneck -18.9468 -0.432989 -1.35843
upperneck 17.9482 -0.139134 -0.299354
head 8.73554 -0.192433 0.103538
rclavicle -4.37326e-015 -3.37934e-014
rhumerus -9.95463 -6.49749 -79.3084
rradius 33.8905
rwrist 25.7198
rhand -23.0312 -23.9961
rfingers 7.12502
rthumb 3.41297 -53.9485
lclavicle -4.37326e-015 -3.37934e-014
lhumerus -6.06439 -6.57324 84.32
lradius 28.3417
lwrist 23.3215
lhand -30.3612 -9.21786
lfingers 7.12502
lthumb -3.66626 20.7303
rfemur -32.3412 -1.60357 21.6287
rtibia 53.8544
rfoot -25.9309 -17.1766
rtoes -17.878
lfemur -35.4632 8.39362 -19.5007
ltibia 56.5697
lfoot -21.9631 14.3672
ltoes -27.0988
331
root 0.622382 16.5965 -10.973 18.3625 1.32746 -1.83416
lowerback 11.6981 0.534705 -1.94532
upperback 0.699046 0.623066 2.76046
thorax -5.88725 0.394501 3.90656
lowerneck -17.9786 -0.490377 -1.34573
upperneck 18.5108 -0.236965 -0.29028
head 8.75599 -0.238321 0.0934194
rclavicle -4.37326e-015 -1.98785e-015
rhumerus -8.97274 -5.99378 -79.8083
rradius 33.5849
rwrist 26.0483
rhand -22.7697 -23.7823
rfingers 7.12502
rthumb 3.66547 -53.7305
lclavicle -4.37326e-015 -1.98785e-015
lhumerus -4.86596 -7.58216 84.3071
lradius 28.4484
lwrist 23.8103
lhand -30.4234 -9.48877
lfingers 7.12502
lthumb -3.72636 20.4584
rfemur -29.7993 -2.11031 21.5016
rtibia 52.198
rfoot -23.2329 -15.8269
rtoes -19.3026
lfemur -32.7399 8.71727 -19.2236
ltibia 54.5325
lfoot -19.8668 12.1978
ltoes -27.7131
